<svg version="1" xmlns="http://www.w3.org/2000/svg" width="682.667" height="682.667" viewBox="0 0 512.000000 512.000000"><path d="M237.9.4c-.2.2-3.8.6-7.9 1-4.1.3-8.6.8-10 1.1-7.8 1.3-14.8 2.6-17 3.1-1.4.3-3.8.8-5.3 1-1.6.3-7.9 2-14 3.8-49.8 14.7-94.4 44.5-126.8 84.8-8.2 10.2-21.9 30-21.9 31.7 0 .5-.4 1.1-.8 1.3-1.1.4-12.4 23.7-16.2 33.3C8.9 184.3 3.9 205.7 1 233c-.8 7.7-.5 46.8.3 50.5.3 1.2.8 4.8 1.2 8 .8 6.7.7 6 3 17 1.9 9.5 3.8 16.3 7.1 26.7 1.4 4.3 2.2 8.3 1.8 8.9-.4.7-.3.9.3.6.5-.3 2.2 2.6 3.8 6.6 7.6 19.7 22.5 45.5 36.6 63.3 35.8 45.1 85.7 77 141.9 90.5 6 1.4 6 1.4 17 3.3 14.6 2.5 17.1 2.7 38 3 20.1.3 28.3-.2 45.5-3 12.8-2.1 11.9-1.9 19.5-3.9 3.6-.9 7.3-1.9 8.3-2 6.1-1.2 26.7-9 39-14.7 18.5-8.6 44.3-25 57.5-36.7 13.7-12 28.9-28.2 38.9-41.6 6.9-9.1 17.2-25.2 20.5-31.9 1.2-2.5 2.6-4.2 3.1-3.9.6.3.7.1.4-.4-.4-.6.6-3.7 2.2-6.9 8.8-18.1 17.8-45.7 20.5-62.4.3-1.9.8-4.9 1.1-6.5 2.4-14.1 3-21.8 3-41 0-22.7-1-33.9-5-53-2.4-11.9-7.7-30.2-11-38-.6-1.7-2.5-6.2-4.1-10-2.5-6.1-9.3-19.8-14.4-29-2.6-4.8-9-14.4-15.2-22.6-15.4-20.8-34-39.3-55.3-55-3.3-2.4-6.1-4.7-6.3-5.2-.2-.4-.8-.7-1.4-.7-.6 0-4.1-2-7.7-4.3-26.7-17.5-64-31.2-99.1-36.2-1.9-.3-5.3-.7-7.5-1-4.7-.7-46-1.7-46.6-1.1z"/></svg>